<svg xmlns="http://www.w3.org/2000/svg" width="1200" viewBox="0 0 1200 675" height="675" version="1.0"><defs><clipPath id="a"><path d="M 388 67.398438 L 812 67.398438 L 812 134 L 388 134 Z M 388 67.398438"/></clipPath><clipPath id="b"><path d="M 388 540 L 812 540 L 812 606.601562 L 388 606.601562 Z M 388 540"/></clipPath></defs><path fill="#4D0457" d="M 423.328125 551.566406 L 409.597656 551.566406 L 409.597656 122.460938 L 423.328125 122.460938 L 423.328125 551.566406"/><path fill="#4D0457" d="M 790.523438 551.566406 L 776.796875 551.566406 L 776.796875 122.460938 L 790.523438 122.460938 L 790.523438 551.566406"/><path fill="#9AB0E0" d="M 631.515625 348.007812 C 631.515625 276.203125 749.664062 343.769531 749.664062 122.351562 L 449.5625 122.351562 C 449.5625 343.769531 567.710938 276.203125 567.710938 348.007812 C 567.710938 419.808594 449.5625 372.875 449.5625 573.636719 L 749.664062 573.636719 C 749.664062 372.875 631.515625 419.808594 631.515625 348.007812"/><path fill="#FDE890" d="M 617.160156 348.007812 C 617.160156 296.015625 655.382812 314.035156 682.921875 278.1875 C 658.648438 256.121094 620.152344 261.257812 583.75 243.074219 C 554.769531 227.285156 517.472656 225.492188 487.269531 229.488281 C 511.21875 325.042969 582.039062 280.308594 582.039062 348.007812 C 582.039062 416.304688 472.640625 387.304688 472.640625 562.628906 L 726.582031 562.628906 C 726.582031 384.125 617.160156 416.304688 617.160156 348.007812"/><g clip-path="url(#a)"><path fill="#4D0457" d="M 794.222656 133.359375 L 405.902344 133.359375 C 396.140625 133.359375 388.230469 125.453125 388.230469 115.667969 L 388.230469 85.039062 C 388.230469 75.28125 396.140625 67.371094 405.902344 67.371094 L 794.222656 67.371094 C 803.980469 67.371094 811.890625 75.28125 811.890625 85.039062 L 811.890625 115.667969 C 811.890625 125.453125 803.980469 133.359375 794.222656 133.359375"/></g><g clip-path="url(#b)"><path fill="#4D0457" d="M 794.222656 606.628906 L 405.902344 606.628906 C 396.140625 606.628906 388.230469 598.71875 388.230469 588.964844 L 388.230469 558.335938 C 388.230469 548.550781 396.140625 540.640625 405.902344 540.640625 L 794.222656 540.640625 C 803.980469 540.640625 811.890625 548.550781 811.890625 558.335938 L 811.890625 588.964844 C 811.890625 598.71875 803.980469 606.628906 794.222656 606.628906"/></g></svg>